<?xml version="1.0" encoding="utf-8"?>
<!-- Generator: Adobe Illustrator 16.0.0, SVG Export Plug-In . SVG Version: 6.00 Build 0)  -->
<!DOCTYPE svg PUBLIC "-//W3C//DTD SVG 1.1//EN" "http://www.w3.org/Graphics/SVG/1.1/DTD/svg11.dtd">
<svg version="1.1" xmlns="http://www.w3.org/2000/svg" xmlns:xlink="http://www.w3.org/1999/xlink" x="0px" y="0px"
	 width="128.002px" height="119.944px" viewBox="0 0 128.002 119.944" enable-background="new 0 0 128.002 119.944"
	 xml:space="preserve">
<g id="Layer_1">
</g>
<g id="Layer_2">
	<path fill="#FF8300" d="M127.835,104.777c0,8.284-6.716,15-15,15h-97.69c-8.284,0-15-6.716-15-15L0.312,15c0-8.284,6.716-15,15-15
		h97.69c8.284,0,15,6.716,15,15L127.835,104.777z"/>
	<g>
		<path fill="#FFFFFF" d="M16.903,45.479c1.483-0.312,3.824-0.546,6.204-0.546c3.395,0,5.579,0.585,7.218,1.912
			c1.366,1.015,2.186,2.575,2.186,4.643c0,2.536-1.678,4.76-4.448,5.774v0.078c2.497,0.624,5.424,2.692,5.424,6.594
			c0,2.263-0.897,3.979-2.225,5.267c-1.834,1.678-4.799,2.458-9.091,2.458c-2.341,0-4.136-0.156-5.268-0.312V45.479z M20.298,56.247
			h3.083c3.589,0,5.696-1.873,5.696-4.409c0-3.083-2.341-4.292-5.774-4.292c-1.561,0-2.458,0.117-3.005,0.234V56.247z M20.298,68.85
			c0.664,0.117,1.639,0.156,2.849,0.156c3.512,0,6.75-1.288,6.75-5.111c0-3.589-3.082-5.072-6.789-5.072h-2.81V68.85z"/>
		<path fill="#FFFFFF" d="M41.447,45.127v15.568c0,5.892,2.614,8.389,6.126,8.389c3.901,0,6.398-2.575,6.398-8.389V45.127h3.434
			v15.333c0,8.077-4.253,11.393-9.949,11.393c-5.384,0-9.442-3.083-9.442-11.237v-15.49H41.447z"/>
		<path fill="#FFFFFF" d="M66.692,45.127v26.297h-3.395V45.127H66.692z"/>
		<path fill="#FFFFFF" d="M72.624,45.127h3.395v23.449h11.237v2.848H72.624V45.127z"/>
		<path fill="#FFFFFF" d="M91.041,45.479c2.068-0.312,4.526-0.546,7.219-0.546c4.877,0,8.35,1.131,10.651,3.277
			c2.341,2.146,3.707,5.189,3.707,9.442c0,4.292-1.327,7.803-3.785,10.223c-2.458,2.458-6.516,3.784-11.627,3.784
			c-2.419,0-4.448-0.117-6.165-0.312V45.479z M94.436,68.732c0.858,0.156,2.107,0.195,3.434,0.195
			c7.258,0,11.198-4.058,11.198-11.159c0.039-6.204-3.473-10.145-10.651-10.145c-1.756,0-3.083,0.156-3.98,0.351V68.732z"/>
	</g>
</g>
</svg>
