<?xml version="1.0" encoding="utf-8"?>
<!-- Generator: Adobe Illustrator 16.0.0, SVG Export Plug-In . SVG Version: 6.00 Build 0)  -->
<!DOCTYPE svg PUBLIC "-//W3C//DTD SVG 1.1//EN" "http://www.w3.org/Graphics/SVG/1.1/DTD/svg11.dtd">
<svg version="1.1" xmlns="http://www.w3.org/2000/svg" xmlns:xlink="http://www.w3.org/1999/xlink" x="0px" y="0px"
	 width="128.002px" height="119.944px" viewBox="0 0 128.002 119.944" enable-background="new 0 0 128.002 119.944"
	 xml:space="preserve">
<g id="Layer_1">
</g>
<g id="Layer_2">
	<path fill="#FF8300" d="M127.835,104.777c0,8.284-6.716,15-15,15h-97.69c-8.284,0-15-6.716-15-15L0.312,15c0-8.284,6.716-15,15-15
		h97.69c8.284,0,15,6.716,15,15L127.835,104.777z"/>
	<g>
		<path fill="#FFFFFF" d="M38.732,70.254c-1.521,0.546-4.525,1.443-8.076,1.443c-3.979,0-7.256-1.014-9.832-3.472
			c-2.262-2.185-3.668-5.697-3.668-9.793c0.039-7.842,5.424-13.578,14.242-13.578c3.043,0,5.424,0.663,6.555,1.209l-0.82,2.77
			c-1.404-0.624-3.16-1.131-5.812-1.131c-6.398,0-10.574,3.979-10.574,10.574c0,6.672,4.02,10.612,10.145,10.612
			c2.225,0,3.746-0.312,4.525-0.702v-7.842h-5.344v-2.731h8.66V70.254z"/>
		<path fill="#FFFFFF" d="M66.398,58.003c0,9.052-5.502,13.851-12.213,13.851c-6.945,0-11.822-5.384-11.822-13.344
			c0-8.35,5.189-13.812,12.213-13.812C61.756,44.698,66.398,50.2,66.398,58.003z M45.992,58.432c0,5.619,3.043,10.652,8.389,10.652
			c5.385,0,8.428-4.955,8.428-10.925c0-5.229-2.73-10.69-8.389-10.69C48.803,47.469,45.992,52.658,45.992,58.432z"/>
		<path fill="#FFFFFF" d="M70.811,45.127h3.395v23.449h11.236v2.848H70.811V45.127z"/>
		<path fill="#FFFFFF" d="M89.227,45.479c2.068-0.312,4.527-0.546,7.219-0.546c4.877,0,8.35,1.131,10.652,3.277
			c2.34,2.146,3.707,5.189,3.707,9.442c0,4.292-1.328,7.803-3.785,10.223c-2.459,2.458-6.516,3.784-11.627,3.784
			c-2.42,0-4.449-0.117-6.166-0.312V45.479z M92.621,68.732c0.859,0.156,2.107,0.195,3.434,0.195
			c7.258,0,11.199-4.058,11.199-11.159c0.039-6.204-3.473-10.145-10.652-10.145c-1.756,0-3.082,0.156-3.98,0.351V68.732z"/>
	</g>
</g>
</svg>
