<?xml version="1.0" encoding="utf-8"?>
<!-- Generator: Adobe Illustrator 16.0.0, SVG Export Plug-In . SVG Version: 6.00 Build 0)  -->
<!DOCTYPE svg PUBLIC "-//W3C//DTD SVG 1.1//EN" "http://www.w3.org/Graphics/SVG/1.1/DTD/svg11.dtd">
<svg version="1.1" xmlns="http://www.w3.org/2000/svg" xmlns:xlink="http://www.w3.org/1999/xlink" x="0px" y="0px"
	 width="128.002px" height="119.944px" viewBox="0 0 128.002 119.944" enable-background="new 0 0 128.002 119.944"
	 xml:space="preserve">
<g id="Layer_1">
</g>
<g id="Layer_2">
	<path fill="#FF8300" d="M127.835,104.777c0,8.284-6.716,15-15,15h-97.69c-8.284,0-15-6.716-15-15L0.312,15c0-8.284,6.716-15,15-15
		h97.69c8.284,0,15,6.716,15,15L127.835,104.777z"/>
	<g>
		<path fill="#FFFFFF" d="M24.538,58.373c0,7.345-4.464,11.24-9.91,11.24c-5.636,0-9.594-4.369-9.594-10.828
			c0-6.776,4.211-11.208,9.91-11.208C20.771,47.576,24.538,52.041,24.538,58.373z M7.979,58.721c0,4.56,2.47,8.644,6.808,8.644
			c4.369,0,6.839-4.021,6.839-8.865c0-4.243-2.216-8.675-6.807-8.675C10.259,49.824,7.979,54.035,7.979,58.721z"/>
		<path fill="#FFFFFF" d="M28.114,48.178c1.33-0.222,3.071-0.412,5.288-0.412c2.723,0,4.717,0.633,5.983,1.773
			c1.172,1.013,1.868,2.565,1.868,4.464c0,1.932-0.569,3.451-1.646,4.56c-1.456,1.551-3.831,2.343-6.522,2.343
			c-0.823,0-1.583-0.032-2.216-0.19v8.549h-2.755V48.178z M30.869,58.468c0.602,0.159,1.361,0.222,2.279,0.222
			c3.324,0,5.351-1.615,5.351-4.559c0-2.818-1.994-4.18-5.034-4.18c-1.203,0-2.121,0.095-2.596,0.222V58.468z"/>
		<path fill="#FFFFFF" d="M49.011,50.268h-6.49v-2.343h15.799v2.343h-6.522v18.997h-2.786V50.268z"/>
		<path fill="#FFFFFF" d="M63.447,47.924v21.34h-2.755v-21.34H63.447z"/>
		<path fill="#FFFFFF" d="M86.497,58.373c0,7.345-4.464,11.24-9.91,11.24c-5.636,0-9.594-4.369-9.594-10.828
			c0-6.776,4.211-11.208,9.91-11.208C82.729,47.576,86.497,52.041,86.497,58.373z M69.938,58.721c0,4.56,2.47,8.644,6.808,8.644
			c4.369,0,6.839-4.021,6.839-8.865c0-4.243-2.216-8.675-6.807-8.675C72.218,49.824,69.938,54.035,69.938,58.721z"/>
		<path fill="#FFFFFF" d="M90.073,69.265v-21.34h3.008l6.839,10.797c1.583,2.501,2.818,4.75,3.831,6.934l0.063-0.032
			c-0.253-2.85-0.316-5.446-0.316-8.771v-8.929h2.597v21.34h-2.787l-6.775-10.829c-1.488-2.375-2.913-4.812-3.989-7.124
			l-0.095,0.031c0.158,2.691,0.222,5.256,0.222,8.802v9.119H90.073z"/>
		<path fill="#FFFFFF" d="M110.525,65.909c1.234,0.76,3.039,1.393,4.939,1.393c2.817,0,4.464-1.488,4.464-3.641
			c0-1.995-1.14-3.135-4.021-4.243c-3.483-1.235-5.636-3.04-5.636-6.048c0-3.324,2.754-5.794,6.902-5.794
			c2.185,0,3.768,0.507,4.717,1.045l-0.76,2.248c-0.696-0.38-2.121-1.013-4.053-1.013c-2.912,0-4.021,1.741-4.021,3.198
			c0,1.995,1.298,2.976,4.242,4.116c3.609,1.393,5.446,3.134,5.446,6.269c0,3.293-2.438,6.142-7.473,6.142
			c-2.058,0-4.306-0.602-5.445-1.361L110.525,65.909z"/>
	</g>
</g>
</svg>
